<svg id="layer1" xmlns="http://www.w3.org/2000/svg" width="41.995" height="28.313" viewBox="0 0 41.995 28.313">
  <g id="g2402" transform="translate(0 0)">
    <g id="g3035" transform="translate(0 0)">
      <path id="path2405" d="M547.294,631.165l-8.635-15.007,6.2-3.563,10.737,18.57h-8.306" transform="translate(-519.808 -612.595)" fill="#574977"/>
      <path id="path2407" d="M196.6,922.89l6.2-3.587,3.282,5.69H197.8l-1.2-2.1" transform="translate(-192.113 -906.422)" fill="#574977"/>
      <path id="path2409" d="M486.49,1119.833h1.766v-7.142H486.49Z" transform="translate(-469.83 -1091.689)" fill="#574977"/>
      <path id="path2411" d="M939.745,1118.354c-1.974,0-3.162-1.019-3.226-2.456h1.862c0,.45.281,1.108,1.484,1.132.8,0,1.18-.474,1.18-.827-.048-.562-.754-.61-1.509-.73a6.456,6.456,0,0,1-1.862-.5,1.913,1.913,0,0,1-.995-1.717c0-1.276,1.107-2.287,2.953-2.287,1.79,0,2.921.939,3.042,2.335h-1.8c-.016-.377-.088-.971-1.148-.971-.714,0-1.187.145-1.228.642,0,.73,1.485.682,2.64.987a2.07,2.07,0,0,1,1.814,1.934c0,1.774-1.437,2.456-3.21,2.456" transform="translate(-900.96 -1090.041)" fill="#574977"/>
      <path id="path2415" d="M369.731,771.344l6.2-3.579,6.958,12.054H376.4v1.765h-1.766V779.81l-4.9-8.467" transform="translate(-357.974 -761.248)" fill="#574977"/>
      <path id="path2417" d="M288.608,1064.532a3.728,3.728,0,0,1-3.724-3.708,3.685,3.685,0,0,1,3.724-3.676,3.628,3.628,0,0,1,2.1.634v-2.993h1.765v9.574h-1.765v-.474a3.822,3.822,0,0,1-2.1.642Zm-2.03-3.708a2.066,2.066,0,1,0,2.078-2.055,2.1,2.1,0,0,0-2.078,2.055" transform="translate(-276.691 -1036.219)" fill="#574977" fill-rule="evenodd"/>
      <path id="path2419" d="M551.364,1054.789h1.741v9.574h-1.741v-.474a3.78,3.78,0,0,1-2.127.642,3.723,3.723,0,0,1-3.7-3.708,3.743,3.743,0,0,1,5.826-3.042Zm-4.109,6.035a2.055,2.055,0,0,0,4.109,0,2.054,2.054,0,1,0-4.109,0" transform="translate(-526.398 -1036.219)" fill="#574977" fill-rule="evenodd"/>
      <path id="path2421" d="M743.581,1118.354a3.728,3.728,0,0,1-3.7-3.708,3.685,3.685,0,0,1,3.7-3.676,3.576,3.576,0,0,1,2.1.634v-.57h1.765v7.151h-1.765v-.474A3.7,3.7,0,0,1,743.581,1118.354Zm-1.982-3.708a2.069,2.069,0,0,0,2.054,2.031,2.042,2.042,0,0,0,0-4.085,2.09,2.09,0,0,0-2.054,2.054" transform="translate(-712.581 -1090.041)" fill="#574977" fill-rule="evenodd"/>
      <path id="path2423" d="M91.478,1114.647a2.067,2.067,0,0,0,4.133,0,2.066,2.066,0,0,0-4.133,0Zm2.006,3.708a3.73,3.73,0,0,1-3.708-3.708,3.749,3.749,0,0,1,5.834-3.042v-.57h1.741v7.151H95.611v-.474a3.781,3.781,0,0,1-2.127.642" transform="translate(-89.776 -1090.041)" fill="#574977" fill-rule="evenodd"/>
    </g>
  </g>
</svg>
