<svg id="Reddit_logo" xmlns="http://www.w3.org/2000/svg" width="52.008" height="16.488" viewBox="0 0 52.008 16.488">
  <ellipse id="Ellipse_1663" data-name="Ellipse 1663" cx="1.94" cy="1.94" rx="1.94" ry="1.94" transform="translate(41.461 1.212)" fill="#574977"/>
  <path id="Path_54881" data-name="Path 54881" d="M46.837,33.166a1.364,1.364,0,0,0,1.453-1.4,4.656,4.656,0,0,0-.1-.782,5.356,5.356,0,0,0-5.049-4.364c-2.878,0-5.213,2.605-5.213,5.819s2.334,5.819,5.213,5.819a5.172,5.172,0,0,0,4.029-1.686,1.121,1.121,0,0,0-.184-1.676,1.178,1.178,0,0,0-1.447.147,3.572,3.572,0,0,1-2.4,1.034,3.229,3.229,0,0,1-2.969-2.91ZM43.144,28.8A3.125,3.125,0,0,1,46,31.226H40.286A3.124,3.124,0,0,1,43.144,28.8Z" transform="translate(-31.021 -21.77)" fill="#574977"/>
  <path id="Path_54882" data-name="Path 54882" d="M7.031,27.748a1.091,1.091,0,0,0-.911-1.075A4.218,4.218,0,0,0,2.183,28.1v-.146a1.092,1.092,0,1,0-2.183,0v8.929a1.119,1.119,0,0,0,1.024,1.132,1.091,1.091,0,0,0,1.158-1.089V32.319a3.315,3.315,0,0,1,3.636-3.484.979.979,0,0,0,.216,0A1.091,1.091,0,0,0,7.031,27.748Z" transform="translate(0.001 -21.771)" fill="#574977"/>
  <path id="Path_54883" data-name="Path 54883" d="M234.429,34.364a1.091,1.091,0,1,0-2.182,0v8a1.091,1.091,0,1,0,2.182,0Z" transform="translate(-189.937 -27.211)" fill="#574977"/>
  <path id="Path_54884" data-name="Path 54884" d="M109.337,1.091A1.091,1.091,0,0,0,108.246,0h0a1.091,1.091,0,0,0-1.091,1.091V5.964a3.806,3.806,0,0,0-2.788-1.114c-2.878,0-5.213,2.605-5.213,5.819s2.334,5.819,5.213,5.819a3.854,3.854,0,0,0,2.808-1.128,1.091,1.091,0,0,0,2.162-.205Zm-4.971,13.215c-1.674,0-3.031-1.629-3.031-3.637s1.357-3.637,3.031-3.637,3.031,1.628,3.031,3.637S106.041,14.306,104.367,14.306Z" transform="translate(-81.09)" fill="#574977"/>
  <path id="Path_54885" data-name="Path 54885" d="M171.891,1.091A1.091,1.091,0,0,0,170.8,0h0a1.091,1.091,0,0,0-1.091,1.091V5.964a3.805,3.805,0,0,0-2.788-1.114c-2.878,0-5.213,2.605-5.213,5.819s2.334,5.819,5.213,5.819a3.854,3.854,0,0,0,2.808-1.128,1.091,1.091,0,0,0,2.162-.205Zm-4.97,13.215c-1.674,0-3.031-1.629-3.031-3.637s1.357-3.637,3.031-3.637,3.031,1.628,3.031,3.637S168.595,14.306,166.921,14.306Z" transform="translate(-132.249)" fill="#574977"/>
  <path id="Path_54886" data-name="Path 54886" d="M256.3,26.035V17.913h.97a.992.992,0,0,0,1-.905.97.97,0,0,0-.968-1.035h-1v-1.54a1.116,1.116,0,0,0-1.019-1.126,1.091,1.091,0,0,0-1.164,1.089v1.576h-.9a.992.992,0,0,0-1,.905.97.97,0,0,0,.968,1.034h.937v8.123a1.091,1.091,0,0,0,1.091,1.091h0A1.091,1.091,0,0,0,256.3,26.035Z" transform="translate(-206.263 -10.881)" fill="#574977"/>
</svg>
