<svg id="Ebene_x0020_1" xmlns="http://www.w3.org/2000/svg" width="67.583" height="10.753" viewBox="0 0 67.583 10.753">
  <path id="Path_54874" data-name="Path 54874" d="M186.34,9.631v2.013a8.022,8.022,0,0,0-2.784-.593,2.23,2.23,0,0,0-1.153.261.755.755,0,0,0-.435.64c0,.336.325.634.98.9l1.892.921c1.53.729,2.289,1.7,2.289,2.914a2.843,2.843,0,0,1-1.215,2.415,5.3,5.3,0,0,1-3.244.9,15.051,15.051,0,0,1-1.681-.083,12.983,12.983,0,0,1-1.7-.321V17.5a10.006,10.006,0,0,0,3.176.593c1.138,0,1.7-.33,1.7-1,0-.331-.232-.6-.7-.808l-2.1-.9a4.327,4.327,0,0,1-1.729-1.279,2.894,2.894,0,0,1-.56-1.756A2.67,2.67,0,0,1,180.24,10.1a5.185,5.185,0,0,1,3.108-.85,11.554,11.554,0,0,1,1.436.105C185.323,9.432,185.841,9.521,186.34,9.631Z" transform="translate(-119.547 -9.254)" fill="#574977" fill-rule="evenodd"/>
  <path id="Path_54875" data-name="Path 54875" d="M13.95,9.631v2.013a8.014,8.014,0,0,0-2.782-.593,2.226,2.226,0,0,0-1.153.261.755.755,0,0,0-.435.64c0,.336.33.634.985.9l1.892.921c1.524.729,2.285,1.7,2.285,2.914a2.853,2.853,0,0,1-1.211,2.415,5.319,5.319,0,0,1-3.249.9A15.079,15.079,0,0,1,8.6,19.924,13.1,13.1,0,0,1,6.9,19.6V17.5a10.049,10.049,0,0,0,3.174.593c1.138,0,1.7-.33,1.7-1,0-.331-.23-.6-.7-.808l-2.1-.9a4.243,4.243,0,0,1-1.729-1.279,2.857,2.857,0,0,1-.561-1.756A2.661,2.661,0,0,1,7.855,10.1a5.158,5.158,0,0,1,3.1-.85,11.64,11.64,0,0,1,1.441.105C12.934,9.432,13.452,9.521,13.95,9.631Z" transform="translate(-6.686 -9.254)" fill="#574977" fill-rule="evenodd"/>
  <path id="Path_54876" data-name="Path 54876" d="M34,9.8h3.082V20.176H34Z" transform="translate(-24.57 -9.612)" fill="#574977" fill-rule="evenodd"/>
  <path id="Path_54877" data-name="Path 54877" d="M57.379,9.8v1.918H52.8v2.3h3.972v1.729H52.8v2.415h4.673v2.013H49.833V9.8Z" transform="translate(-34.935 -9.612)" fill="#574977" fill-rule="evenodd"/>
  <path id="Path_54878" data-name="Path 54878" d="M89.484,9.8V20.176H86.606V13.333l-2.985,6.939H81.844l-2.871-6.939v6.843H76.892V9.8h3.763l2.568,6.352L85.91,9.8Z" transform="translate(-52.65 -9.612)" fill="#574977" fill-rule="evenodd"/>
  <path id="Path_54879" data-name="Path 54879" d="M127.8,9.8v1.918h-4.555v2.3h3.972v1.729h-3.972v2.415h4.648v2.013H120.25V9.8Z" transform="translate(-81.036 -9.612)" fill="#574977" fill-rule="evenodd"/>
  <path id="Path_54880" data-name="Path 54880" d="M156.326,9.8V20.176h-3.269l-3.669-6.655v6.655h-2.08V9.8h3.365l3.574,6.54V9.8Z" transform="translate(-98.751 -9.612)" fill="#574977" fill-rule="evenodd"/>
</svg>
