<svg id="Walmart_logo" xmlns="http://www.w3.org/2000/svg" width="72.684" height="17.428" viewBox="0 0 72.684 17.428">
  <path id="Path_54887" data-name="Path 54887" d="M120.829,22.628c0-1.721-.737-3.242-3.228-3.242a5.88,5.88,0,0,0-2.844.683l.4,1.381a4.2,4.2,0,0,1,2.079-.58c1.261,0,1.468.712,1.468,1.171v.11c-2.754,0-4.494.947-4.494,2.885a2.29,2.29,0,0,0,2.428,2.294,2.78,2.78,0,0,0,2.215-.981h.046s.314,1.312,2.048.811a11.429,11.429,0,0,1-.121-1.832Zm-2.054,1.817a1.326,1.326,0,0,1-.053.407,1.438,1.438,0,0,1-1.386.974.94.94,0,0,1-1.025-1.007c0-1.042,1.151-1.329,2.464-1.322" transform="translate(-78.672 -13.353)" fill="#574977"/>
  <path id="Path_54888" data-name="Path 54888" d="M0,11.861s1.8,7.358,2.085,8.55c.337,1.393.94,1.908,2.681,1.565l1.124-4.563c.284-1.13.477-1.941.661-3.093h.031a30.359,30.359,0,0,0,.543,3.1s.459,2.073.7,3.159.884,1.771,2.591,1.4l2.676-10.116h-2.16l-.918,4.376c-.243,1.268-.464,2.266-.636,3.428H9.343c-.155-1.149-.352-2.107-.6-3.349l-.951-4.455H5.533L4.517,16.2c-.29,1.326-.56,2.388-.73,3.514H3.757c-.175-1.056-.413-2.4-.665-3.676,0,0-.6-3.108-.816-4.179" transform="translate(0 -8.17)" fill="#574977"/>
  <path id="Path_54889" data-name="Path 54889" d="M46.76,22.628c0-1.721-.739-3.242-3.23-3.242a5.883,5.883,0,0,0-2.843.683l.4,1.381a4.183,4.183,0,0,1,2.079-.58c1.261,0,1.468.712,1.468,1.171v.11c-2.754,0-4.5.947-4.5,2.885a2.291,2.291,0,0,0,2.425,2.294,2.771,2.771,0,0,0,2.216-.981h.048s.315,1.312,2.048.811a11.345,11.345,0,0,1-.119-1.832ZM44.7,24.445a1.383,1.383,0,0,1-.051.407,1.443,1.443,0,0,1-1.39.974.941.941,0,0,1-1.024-1.007c0-1.042,1.151-1.329,2.464-1.322" transform="translate(-27.651 -13.353)" fill="#574977"/>
  <path id="Path_54890" data-name="Path 54890" d="M65.012,11.861V21.973h2.056V11.861Z" transform="translate(-44.782 -8.17)" fill="#574977"/>
  <path id="Path_54891" data-name="Path 54891" d="M155.753,11.861v7.461a3.116,3.116,0,0,0,.609,2.188,2.291,2.291,0,0,0,1.675.637,4.98,4.98,0,0,0,1.491-.22L159.5,20.32a3.293,3.293,0,0,1-.784.091c-.7,0-.934-.445-.934-1.369V16.186h1.791V14.254h-1.791V11.861" transform="translate(-107.286 -8.17)" fill="#574977"/>
  <path id="Path_54892" data-name="Path 54892" d="M138.675,19.575v7.6H140.8V23.282a2.871,2.871,0,0,1,.046-.558,1.6,1.6,0,0,1,1.678-1.34,3.556,3.556,0,0,1,.609.057V19.45a2.181,2.181,0,0,0-2.539,1.562h-.053V19.575" transform="translate(-95.523 -13.367)" fill="#574977"/>
  <path id="Path_54893" data-name="Path 54893" d="M75.456,19.575v7.6h2.071v-4.46a1.732,1.732,0,0,1,.1-.616,1.39,1.39,0,0,1,1.257-.975c.834,0,1.228.7,1.228,1.719v4.331h2.066V22.66a2.125,2.125,0,0,1,.085-.613,1.3,1.3,0,0,1,1.244-.925c.843,0,1.251.689,1.251,1.886v4.165h2.064v-4.48c0-2.354-1.2-3.287-2.557-3.287a2.749,2.749,0,0,0-1.5.411,3.255,3.255,0,0,0-.963.943h-.031a2.168,2.168,0,0,0-2.1-1.354,2.389,2.389,0,0,0-2.215,1.2h-.031V19.575" transform="translate(-51.976 -13.367)" fill="#574977"/>
  <path id="Path_54894" data-name="Path 54894" d="M201.14,5.867a.752.752,0,0,0,.793-.485l.4-4.561c0-.452-.532-.821-1.2-.821s-1.2.37-1.2.821l.406,4.561a.746.746,0,0,0,.789.485" transform="translate(-137.726)" fill="#574977"/>
  <path id="Path_54895" data-name="Path 54895" d="M184.086,15.388a.748.748,0,0,0-.028-.928L180.3,11.831c-.391-.228-.976.044-1.311.619a1.064,1.064,0,0,0,.117,1.443l4.162,1.93a.744.744,0,0,0,.82-.438" transform="translate(-123.143 -8.094)" fill="#574977"/>
  <path id="Path_54896" data-name="Path 54896" d="M211.418,15.387a.765.765,0,0,0,.82.444L216.4,13.9c.387-.228.445-.867.118-1.441s-.923-.845-1.313-.622l-3.76,2.626a.767.767,0,0,0-.022.932" transform="translate(-145.534 -8.097)" fill="#574977"/>
  <path id="Path_54897" data-name="Path 54897" d="M201.14,37.163a.752.752,0,0,1,.793.485l.4,4.561c0,.452-.532.818-1.2.818s-1.2-.366-1.2-.818l.406-4.561a.746.746,0,0,1,.789-.485" transform="translate(-137.726 -25.598)" fill="#574977"/>
  <path id="Path_54898" data-name="Path 54898" d="M211.418,31.554c.213-.354.561-.543.82-.44l4.162,1.931c.387.224.445.868.118,1.443s-.923.843-1.313.619l-3.76-2.63a.756.756,0,0,1-.022-.924" transform="translate(-145.534 -21.412)" fill="#574977"/>
  <path id="Path_54899" data-name="Path 54899" d="M184.086,31.55a.748.748,0,0,1-.028.928L180.3,35.1c-.391.228-.976-.045-1.311-.616a1.064,1.064,0,0,1,.117-1.443l4.162-1.931a.743.743,0,0,1,.82.437" transform="translate(-123.143 -21.412)" fill="#574977"/>
  <path id="Path_54900" data-name="Path 54900" d="M230.666,41.457h.052c.07,0,.1.022.107.078a.386.386,0,0,0,.038.122H231a.243.243,0,0,1-.035-.126.142.142,0,0,0-.1-.119V41.4a.122.122,0,0,0,.107-.117.154.154,0,0,0-.046-.11.362.362,0,0,0-.182-.038.843.843,0,0,0-.194.019v.5h.118Zm0-.23.061-.008c.071,0,.11.033.11.079s-.052.076-.118.076h-.053Zm.076-.342a.511.511,0,1,0,.52.508.509.509,0,0,0-.52-.508m0,.1a.407.407,0,0,1,0,.814.407.407,0,0,1,0-.814" transform="translate(-158.581 -28.162)" fill="#574977"/>
</svg>
