<svg id="g4387" xmlns="http://www.w3.org/2000/svg" width="38.156" height="38.244" viewBox="0 0 38.156 38.244">
  <g id="g4381" transform="translate(0 0)">
    <path id="inner_artwork" d="M21.551,8.682a10.165,10.165,0,0,1,1.949,1.43l-.216.217a26.748,26.748,0,0,0-3.249.044c-.114-.116-.345-.289-.13-.434l1.646-1.257ZM40.7,22.132a3.321,3.321,0,0,1-.13,1.409c-1.978.563-3.277-1.532-5.2-1.216l.217,1.086c1.776.058,2.885,1.761,4.719,1.688-.261.521.116,1.892-1.038,1.344-1.2-.288-2.065-1.344-3.378-1.344-.158.291-.058.694-.086,1.038,1.385.217,2.382,1.388,3.767,1.6a2.288,2.288,0,0,1-.65,1.3c-1.127-.274-2.007-1.286-3.207-1.257l-.214,1c1.14.029,1.877,1.038,2.9,1.341.028.42-.348.8-.564,1.171-.91-.273-1.6-1.055-2.642-1-.014-.392.218-.836.13-1.255-1.167.347-1.95-.737-2.815-1.388-.025-2.129-2.266-3.526-2.384-5.52a2.962,2.962,0,0,1,.219-1.278,6.828,6.828,0,0,0-.3-5.5,3.116,3.116,0,0,0-1.086-.993c.593,1.257,1.315,2.741.955,4.286-.042,1.193-.746,2.338-.754,3.488a2.4,2.4,0,0,0,.321,1.234c.939,1.691,2.628,3.292,1.993,5.413-.175.651-.695,1.155-.825,1.818,1.1.91,2.137,1.935,3.595,1.993.519-.332.231-1.8,1.3-1.124l1.56.78a2.5,2.5,0,0,1-.78,1.079,3.925,3.925,0,0,0-1.907-.605,1.128,1.128,0,0,0-.388.821,3.479,3.479,0,0,1,1.43.608,3.6,3.6,0,0,1-.955,1.038l-1.21-.433c-.2.289-.622.593-.474.91a2.525,2.525,0,0,1,.777.478,8.056,8.056,0,0,1-1.863,1.341c-.561-1.834-2.41-3.12-2.251-5.241l-.086-.086c-.435.489-.289,1.27-.261,1.9.52,1.329,1.761,2.355,1.949,3.812-.217.375-.707.45-1.083.608.044-2.627-3.941-4.619-1.386-7.276.852-1.3,2.28-2.543,1.774-4.334-.519-1.729-2.356-2.8-2.34-4.74l0-.151c.418-2.022,1.689-4.173.65-6.324a3.662,3.662,0,0,0-1.818-2.21,6.188,6.188,0,0,1,1.082,5.977,7.812,7.812,0,0,0-.952,2.708h0a2.263,2.263,0,0,0,.392,1.45c1,1.618,2.728,3.394,1.732,5.5-1.126,1.688-3.089,3.406-1.993,5.63.794,1.328,2.022,2.653,1.691,4.286l-1.3.433c.866-3.045-3.379-4.835-1.6-7.881,1.1-1.631,3.059-3.162,1.949-5.327-.664-1.341-2.036-2.135-1.993-3.812l.047-.281c.447-2.378,2.254-4.628.991-7.169a4.515,4.515,0,0,0-1.732-1.949l-.045.045a5.25,5.25,0,0,1,1.127,5.671c-.371,1.109-1.184,2.214-1.349,3.4a2.794,2.794,0,0,0,.311,1.753c.938,1.486,2.584,3.062,1.557,4.983C25.71,30.455,23.9,32,24.626,34.062c.794,1.805,2.453,3.525,1.557,5.763l-1.341.3c1.068-2.181-.533-4.346-1.471-6.238-1.141-2.714,2.452-4.014,2.509-6.5-.014-1.6-1.716-2.511-2.076-3.984-.737-.622-1.5.247-2.382.086-.65.131-1.649-.9-2.038.217-.462,1.63-2.569,2.829-1.643,4.763.881,1.719,3,2.975,2.293,5.2-.634,2.077-2.729,4.055-1.43,6.452-.534-.173-1.53.158-1.516-.694-.822-2.9,2.685-4.592,1.6-7.492-.5-1.776-2.8-2.758-2.3-4.894.374-1.759,2.347-2.988,2.071-4.915a2.843,2.843,0,0,0-.119-.5c-.737-2.079-2.239-4.158-1.344-6.585a8.492,8.492,0,0,1,1.169-1.9,4.378,4.378,0,0,0-2.121,4.028c-.062,1.789,1.259,3.322,1.447,4.959a3.023,3.023,0,0,1-.5,2.055c-.938,1.272-2.164,2.614-1.6,4.289.535,1.69,2.642,2.713,2.512,4.678-.014,2.323-2.714,3.77-1.949,6.368l-1.344-.436c-.533-2.309,1.92-3.49,1.948-5.627.347-2.457-2.786-3.368-2.6-5.763-.013-1.82,1.588-2.972,2.3-4.5a2.932,2.932,0,0,0,.145-1.062c-.087-1.692-1.612-3.015-1.358-4.918a6.022,6.022,0,0,1,1.471-3.681c-1.255.5-1.774,1.949-2.121,3.162-.6,1.945.835,3.694.979,5.437a2.878,2.878,0,0,1-.848,2.317c-1.04,1.226-2.095,2.772-1.344,4.419.8,1.818,3.293,3.232,2.21,5.5-.591,1.429-2.007,2.512-1.948,4.2a3.684,3.684,0,0,1-1.083-.605c0-2.151,3.059-3.494,1.6-5.76-.129.447-.157,1.055-.258,1.56-.506,1.314-1.588,2.366-1.993,3.725A5.954,5.954,0,0,1,9.772,36.1l.78-.478a2.458,2.458,0,0,0-.519-.78c-.507-.071-.839.261-1.257.392a6.494,6.494,0,0,1-1-1c.259-.738,2.283-.128,1.258-1.341-.692-.433-1.387.185-1.993.474l-.822-1.038c.707-.433,1.413-1.04,2.293-.866.217.39.232.965.65,1.169,1.487-.029,2.541-1.154,3.681-2.035-.795-1.182-1.441-2.815-.736-4.245.566-1.433,2.039-2.64,2.106-4.224a2.817,2.817,0,0,0-.2-1.148c-.779-2.007-1.054-4.719.433-6.5-.809.217-1.285,1.225-1.56,1.99-.894,1.96.237,3.775.276,5.653a4.05,4.05,0,0,1-.1,1.017c-.765,1.545-2.005,2.9-2.207,4.677-.881.562-1.6,1.545-2.859,1.213a3.326,3.326,0,0,0,.172,1.213c-1-.042-1.674.692-2.512,1.038-.446-.143-.563-.72-.735-1.124.981-.331,1.689-1.315,2.815-1.3.131-.363-.073-.7-.131-1.041C6.2,27.2,3.982,30.9,3.8,27.7c1.4-.087,2.295-1.386,3.681-1.516l.041-1.038c-1.573-.159-2.586,1.459-4.159,1.3l-.347-1.385c1.819.114,2.9-1.517,4.636-1.6a2.361,2.361,0,0,0,.3-1.169c-1.891-.246-3.189,1.85-5.2,1.213,0,0-.069-.872-.107-1.364h0c-.014-.192-.027-.326-.027-.326,1.79.695,3.363-.591,4.894-1.255.389-.117,1,.086,1.171-.347-.015-.332.59-.72.086-.952-2.239-.3-3.726,2.4-6.021,1.169l-.172-.347A19.425,19.425,0,0,1,12.845,4.136a17.935,17.935,0,0,1,8.643-2.159A17.892,17.892,0,0,1,31.816,4.917,18.838,18.838,0,0,1,40.738,20.29c-2.368,1.789-3.957-1.686-6.368-.908a3,3,0,0,0,.477,1.083c2.137-.015,3.609,2.223,5.846,1.341l0,.326ZM13.494,14.1c-1.5-.982-3.405-.057-4.8.477A4.7,4.7,0,0,0,6.912,11.2a1.183,1.183,0,0,0-.392-.175.223.223,0,0,0-.216.13c.5,3.1-1.513,5.269-2.942,7.623a2.279,2.279,0,0,0,1.818.217c1.515-.606,2.959-1.661,4.764-1.3a13.376,13.376,0,0,1,2.165-2.512c.449-.389,1.066-.636,1.385-1.083Zm4.592,1.949c-.029.187.014.52.3.391.448-.621,1.242-.13,1.732-.086v-.175a1.555,1.555,0,0,0-1.385-.614,2.049,2.049,0,0,0-.389.053.337.337,0,0,0-.261.43Zm7.059-1.86a2.989,2.989,0,0,0-2.166-1.474,11.257,11.257,0,0,0-1.261-.089c-.079,0-.158,0-.237,0a3.547,3.547,0,0,0-3,1.3c-.1.275-.535.661-.13.908.91-.058,1.947-.172,2.554.608,0,.694.448,1.616-.3,1.949-.622-.576-1.358.245-2.035-.217-.318-.188-.519.031-.65.306a5.087,5.087,0,0,0,2.423,4.761,3.093,3.093,0,0,0,2.3.13c1.7-.793,2.409-2.611,2.726-4.286-.043-.319-.027-.94-.475-.955a2.422,2.422,0,0,1-1.777,0c-.316.1-.331.565-.691.653l-.219-.175c-.188-.793-.3-1.919.433-2.468a4.062,4.062,0,0,1,2.642-.217c.159-.274-.086-.49-.131-.735Zm-.869,1.424-.169.006c-.3.2-1.184.057-.866.736.549-.434,1.314-.13,1.863.086.2-.1.159-.3.172-.477C25.1,15.632,24.678,15.6,24.275,15.609Zm6.285-6.1a9.173,9.173,0,0,0-2.945.824c-.086-.835.549-1.718.694-2.557-1.587.1-2.845,1.058-4.158,1.821q-.456-1.1-.911-2.21l1.732-1.646.044-.217-2.34-.13a21.936,21.936,0,0,0-1.038-2.207c-.39.736-.652,1.515-1.041,2.251l-2.337.131v.172l1.774,1.6a5.83,5.83,0,0,1-.952,2.34,20.6,20.6,0,0,0-3.2-1.732c-.274-.089-.665-.232-.91-.044a5.257,5.257,0,0,1,.78,2.515,13.466,13.466,0,0,1-1.3-.522,3.164,3.164,0,0,0-1.691-.258,9.519,9.519,0,0,1,1.818,3.939,16.08,16.08,0,0,1,9.7-1.557,23.752,23.752,0,0,1,4.589,1.471c.057-1.529,1.024-2.758,1.69-3.986ZM35.5,17.822c1.471.389,2.947,1.993,4.505.952-1.357-2.252-3.377-4.331-2.815-7.276a.339.339,0,0,0-.258-.433,3.8,3.8,0,0,0-1.91,2.08,12.893,12.893,0,0,1-.43,1.515,6.159,6.159,0,0,0-3.465-.952c-.463.058-1.127.088-1.213.564a10.065,10.065,0,0,1,3.55,3.464,6.933,6.933,0,0,1,2.035.086ZM20.079,19.857l.042.261c.564.376.738,1.013,1.519.955.693.041,1.212-.608,1.557-1.127-.937-.129-2.078.071-3.117-.089Zm.78-1.169c.028.116-.072.289.086.347.462-.1,1.3.246,1.557-.3a1.037,1.037,0,0,0-.783-.293A1.566,1.566,0,0,0,20.858,18.688Z" transform="translate(-2.582 -1.977)" fill="#574977"/>
    <g id="g4377" transform="translate(18.023 16.542)">
      <path id="path3032-6" d="M141.527,129.808c.409.1.51.242.834.282.344-.006.294-.076.893-.283a.1.1,0,0,0,.026-.167c-.372-.369-.629-.106-.863-.1-.309,0-.6-.265-.9.084-.052.071-.078.14.012.182Z" transform="translate(-141.468 -129.444)" fill="#574977"/>
    </g>
  </g>
  <g id="text4354" transform="translate(32.375 36.015)">
    <path id="path4430" d="M252.722,281.722V279.87h-.662v-.377h1.772v.377h-.66v1.852Z" transform="translate(-252.06 -279.493)" fill="#574977"/>
    <path id="path4432" d="M267.916,281.722v-2.23h.674l.4,1.521.4-1.521h.675v2.23h-.418v-1.755l-.443,1.755h-.433l-.441-1.755v1.755Z" transform="translate(-265.858 -279.492)" fill="#574977"/>
  </g>
</svg>
