<svg id="Amazon_logo" xmlns="http://www.w3.org/2000/svg" width="61.043" height="18.396" viewBox="0 0 61.043 18.396">
  <path id="path8" d="M114.381,118.694a23.254,23.254,0,0,1-13.116,4.01,23.733,23.733,0,0,1-16.023-6.114c-.332-.3-.035-.709.364-.476a32.247,32.247,0,0,0,16.031,4.252,31.876,31.876,0,0,0,12.228-2.5c.6-.255,1.1.393.515.829" transform="translate(-76.512 -104.308)" fill="#574977"/>
  <path id="path10" d="M349.237,111.35c-.452-.579-3-.274-4.14-.138-.348.043-.4-.26-.088-.478,2.027-1.427,5.354-1.015,5.742-.537s-.1,3.816-2.006,5.407c-.292.244-.571.114-.441-.21.428-1.068,1.387-3.462.933-4.044" transform="translate(-309.893 -98.651)" fill="#574977"/>
  <path id="path12" d="M345.364,4.658V3.271a.342.342,0,0,1,.351-.351h6.21a.346.346,0,0,1,.359.351V4.459a1.953,1.953,0,0,1-.468.872L348.6,9.925a6.856,6.856,0,0,1,3.542.76.632.632,0,0,1,.33.539V12.7c0,.2-.223.438-.457.316a7.153,7.153,0,0,0-6.561.011c-.215.117-.441-.117-.441-.319V11.306a1.677,1.677,0,0,1,.228-.954l3.728-5.346h-3.244a.344.344,0,0,1-.359-.348" transform="translate(-310.079 -2.649)" fill="#574977"/>
  <path id="path14" d="M105.256,11.734h-1.889a.357.357,0,0,1-.337-.322v-9.7a.355.355,0,0,1,.364-.348h1.762a.356.356,0,0,1,.343.324V2.96h.035a2.6,2.6,0,0,1,4.94,0,2.79,2.79,0,0,1,4.8-.736c.6.816.476,2,.476,3.04l0,6.12a.357.357,0,0,1-.364.351H113.49a.359.359,0,0,1-.34-.351V6.244a12.139,12.139,0,0,0-.053-1.818.984.984,0,0,0-1.111-.834,1.255,1.255,0,0,0-1.129.795,5.87,5.87,0,0,0-.175,1.857v5.139a.357.357,0,0,1-.364.351h-1.887a.357.357,0,0,1-.34-.351l0-5.139c0-1.081.178-2.673-1.164-2.673-1.358,0-1.3,1.552-1.3,2.673v5.139a.357.357,0,0,1-.364.351" transform="translate(-92.624 -1.071)" fill="#574977"/>
  <path id="path16" d="M431.819,1.164c2.8,0,4.321,2.407,4.321,5.469,0,2.958-1.677,5.3-4.321,5.3-2.753,0-4.251-2.407-4.251-5.407,0-3.019,1.517-5.365,4.251-5.365m.016,1.98c-1.392,0-1.48,1.9-1.48,3.08s-.019,3.715,1.464,3.715c1.464,0,1.533-2.041,1.533-3.284a8.964,8.964,0,0,0-.282-2.572,1.182,1.182,0,0,0-1.236-.938" transform="translate(-384.269 -1.071)" fill="#574977"/>
  <path id="path18" d="M528.288,11.734h-1.881a.359.359,0,0,1-.34-.351l0-9.7a.357.357,0,0,1,.364-.316h1.751a.361.361,0,0,1,.337.271V3.122h.035a2.57,2.57,0,0,1,2.575-1.958,2.479,2.479,0,0,1,2.205,1.143,6.162,6.162,0,0,1,.494,3.019v6.1a.363.363,0,0,1-.364.306h-1.895a.358.358,0,0,1-.335-.306V6.162c0-1.06.122-2.612-1.182-2.612a1.235,1.235,0,0,0-1.092.776,4.293,4.293,0,0,0-.3,1.836v5.221a.363.363,0,0,1-.369.351" transform="translate(-472.783 -1.071)" fill="#574977"/>
  <path id="use28" d="M5.931,6.278V5.869c-1.366,0-2.809.292-2.809,1.9,0,.816.422,1.368,1.148,1.368a1.532,1.532,0,0,0,1.307-.858,3.7,3.7,0,0,0,.353-2m1.905,4.6a.394.394,0,0,1-.446.045,4.652,4.652,0,0,1-1.084-1.26,3.738,3.738,0,0,1-3.114,1.374A2.681,2.681,0,0,1,.364,8.1,3.21,3.21,0,0,1,2.378,5.01a13.09,13.09,0,0,1,3.553-.656V4.11A2.431,2.431,0,0,0,5.7,2.741a1.264,1.264,0,0,0-1.06-.492,1.44,1.44,0,0,0-1.52,1.135A.4.4,0,0,1,2.8,3.73l-1.833-.2a.335.335,0,0,1-.282-.4C1.1.916,3.109.246,4.905.246a4.283,4.283,0,0,1,2.846.941c.919.858.832,2,.832,3.25V7.381a2.584,2.584,0,0,0,.712,1.751.355.355,0,0,1-.005.5c-.385.322-1.071.919-1.448,1.254l-.005-.005" transform="translate(24.403 -0.246)" fill="#574977"/>
  <path id="path30" d="M5.931,6.278V5.869c-1.366,0-2.809.292-2.809,1.9,0,.816.422,1.368,1.148,1.368a1.532,1.532,0,0,0,1.307-.858,3.7,3.7,0,0,0,.353-2m1.905,4.6a.394.394,0,0,1-.446.045,4.652,4.652,0,0,1-1.084-1.26,3.738,3.738,0,0,1-3.114,1.374A2.681,2.681,0,0,1,.364,8.1,3.21,3.21,0,0,1,2.378,5.01a13.09,13.09,0,0,1,3.553-.656V4.11A2.431,2.431,0,0,0,5.7,2.741a1.264,1.264,0,0,0-1.06-.492,1.44,1.44,0,0,0-1.52,1.135A.4.4,0,0,1,2.8,3.73l-1.833-.2a.335.335,0,0,1-.282-.4C1.1.916,3.109.246,4.905.246a4.283,4.283,0,0,1,2.846.941c.919.858.832,2,.832,3.25V7.381a2.584,2.584,0,0,0,.712,1.751.355.355,0,0,1-.005.5c-.385.322-1.071.919-1.448,1.254l-.005-.005" transform="translate(-0.364 -0.246)" fill="#574977"/>
</svg>
