<svg id="Amazon_Web_Services_Logo" xmlns="http://www.w3.org/2000/svg" width="38.88" height="23.251" viewBox="0 0 38.88 23.251">
  <path id="Path_54914" data-name="Path 54914" d="M23.449,9.544a3.913,3.913,0,0,0,.142,1.151,6.922,6.922,0,0,0,.414.931.562.562,0,0,1,.091.3.512.512,0,0,1-.246.388l-.815.543a.62.62,0,0,1-.336.116.6.6,0,0,1-.388-.181,4,4,0,0,1-.466-.608c-.129-.22-.259-.466-.4-.763a4.777,4.777,0,0,1-3.8,1.785,3.543,3.543,0,0,1-2.586-.931A3.322,3.322,0,0,1,14.1,9.79a3.329,3.329,0,0,1,1.177-2.664,4.7,4.7,0,0,1,3.168-1.009,10.238,10.238,0,0,1,1.371.1c.478.065.97.168,1.487.284V5.561a2.865,2.865,0,0,0-.608-2.069A2.976,2.976,0,0,0,18.587,2.9a5.883,5.883,0,0,0-1.4.168,10.3,10.3,0,0,0-1.4.44,3.71,3.71,0,0,1-.453.168.793.793,0,0,1-.207.039c-.181,0-.272-.129-.272-.4V2.678a.818.818,0,0,1,.091-.453.968.968,0,0,1,.362-.272,7.445,7.445,0,0,1,1.629-.582,7.84,7.84,0,0,1,2.017-.246A4.725,4.725,0,0,1,22.35,2.173a4.279,4.279,0,0,1,1.073,3.181v4.19ZM18.2,11.51a4.191,4.191,0,0,0,1.332-.233,2.882,2.882,0,0,0,1.228-.828,2.053,2.053,0,0,0,.44-.828A4.643,4.643,0,0,0,21.329,8.5V7.954a10.8,10.8,0,0,0-1.19-.22,9.744,9.744,0,0,0-1.216-.078A2.981,2.981,0,0,0,17,8.174a1.8,1.8,0,0,0-.634,1.487A1.669,1.669,0,0,0,18.2,11.51Zm10.384,1.4a.722.722,0,0,1-.491-.129,1.054,1.054,0,0,1-.272-.5l-3.039-10a2.265,2.265,0,0,1-.116-.517.284.284,0,0,1,.31-.323h1.267a.717.717,0,0,1,.5.129,1.058,1.058,0,0,1,.259.5l2.172,8.561L31.2,2.07a.907.907,0,0,1,.246-.5.889.889,0,0,1,.517-.129h1.034a.778.778,0,0,1,.517.129.871.871,0,0,1,.246.5L35.8,10.734,38.036,2.07a1.109,1.109,0,0,1,.259-.5.844.844,0,0,1,.5-.129H40a.287.287,0,0,1,.323.323,1.29,1.29,0,0,1-.026.207,1.84,1.84,0,0,1-.091.323l-3.116,10a.992.992,0,0,1-.272.5.827.827,0,0,1-.491.129H35.217a.778.778,0,0,1-.517-.129.917.917,0,0,1-.246-.517l-2-8.341L30.458,12.26a1.009,1.009,0,0,1-.246.517.8.8,0,0,1-.517.129Zm16.617.349a8.557,8.557,0,0,1-1.991-.233,5.882,5.882,0,0,1-1.487-.517.932.932,0,0,1-.4-.362.913.913,0,0,1-.078-.362v-.66c0-.272.1-.4.3-.4a.732.732,0,0,1,.233.039c.078.026.194.078.323.129a7.034,7.034,0,0,0,1.422.453,7.766,7.766,0,0,0,1.539.155,3.489,3.489,0,0,0,1.888-.427,1.393,1.393,0,0,0,.672-1.228,1.259,1.259,0,0,0-.349-.905,3.245,3.245,0,0,0-1.306-.672l-1.875-.582a3.944,3.944,0,0,1-2.069-1.319,3.081,3.081,0,0,1-.647-1.875,2.878,2.878,0,0,1,.349-1.435,3.325,3.325,0,0,1,.931-1.06A4.1,4.1,0,0,1,44,1.32a5.636,5.636,0,0,1,1.629-.22,6.491,6.491,0,0,1,.866.052c.3.039.569.091.841.142s.5.129.737.207a2.822,2.822,0,0,1,.543.233A1.118,1.118,0,0,1,49,2.057a.7.7,0,0,1,.116.427v.608c0,.272-.1.414-.3.414a1.345,1.345,0,0,1-.491-.155,5.916,5.916,0,0,0-2.483-.5,3.338,3.338,0,0,0-1.72.362,1.249,1.249,0,0,0-.608,1.151,1.221,1.221,0,0,0,.388.918,3.863,3.863,0,0,0,1.422.711l1.836.582a3.933,3.933,0,0,1,2,1.241,2.926,2.926,0,0,1,.595,1.81,3.325,3.325,0,0,1-.336,1.5,3.478,3.478,0,0,1-.944,1.138,4.168,4.168,0,0,1-1.435.724A6.149,6.149,0,0,1,45.2,13.256Z" transform="translate(-12.492 -1.1)" fill="#574977"/>
  <g id="Group_26580" data-name="Group 26580" transform="translate(0 14.495)">
    <path id="Path_54915" data-name="Path 54915" d="M36.819,122.319c-4.254,3.142-10.435,4.811-15.75,4.811A28.493,28.493,0,0,1,1.84,119.8c-.4-.362-.039-.853.44-.569A38.189,38.189,0,0,0,36.2,121.336C36.91,121.012,37.517,121.8,36.819,122.319Z" transform="translate(-1.668 -118.373)" fill="#574977" fill-rule="evenodd"/>
    <path id="Path_54916" data-name="Path 54916" d="M251.316,115.12c-.543-.7-3.595-.336-4.978-.168-.414.052-.478-.31-.1-.582,2.431-1.707,6.427-1.216,6.892-.647s-.129,4.578-2.405,6.492c-.349.3-.685.142-.53-.246C250.708,118.689,251.859,115.805,251.316,115.12Z" transform="translate(-214.393 -113.192)" fill="#574977" fill-rule="evenodd"/>
  </g>
</svg>
