<svg id="layer1" xmlns="http://www.w3.org/2000/svg" width="60.368" height="12.461" viewBox="0 0 60.368 12.461">
  <g id="g23944" transform="translate(0 0)">
    <g id="g13605" transform="translate(29.147 2.673) rotate(90)">
      <path id="path13607" d="M0,3.845A3.934,3.934,0,0,0,1.517,6.933H.159v2.6H9.627v-2.6H4.239a2.029,2.029,0,0,1-2-2.144,2.085,2.085,0,0,1,2-2.189H9.627V0H3.758A3.644,3.644,0,0,0,0,3.845" transform="translate(0 0)" fill="#574977"/>
    </g>
    <g id="g13609" transform="translate(50.594 2.832) rotate(90)">
      <path id="path13611" d="M0,2.969,6.449,5.32,0,7.67v2.97l9.465-3.9V3.9L0,0Z" transform="translate(0 0)" fill="#574977"/>
    </g>
    <g id="g13613" transform="translate(18.681 2.672) rotate(90)">
      <path id="path13615" d="M3.012,6.827a2.419,2.419,0,0,1-.944-2A2.175,2.175,0,0,1,3.393,2.813L5.278,7.355a3.045,3.045,0,0,1-2.266-.527m3.7-4.995a3.953,3.953,0,0,1,1,2.717,2.881,2.881,0,0,1-.768,2.1L4.194,0A5.131,5.131,0,0,0,1.551,1.135,4.75,4.75,0,0,0,0,4.875,4.849,4.849,0,0,0,4.894,9.889c2.858,0,4.894-2.161,4.894-5.3A6.236,6.236,0,0,0,7.98.189Z" transform="translate(0 0)" fill="#574977"/>
    </g>
    <g id="g13617" transform="translate(8.544 0) rotate(90)">
      <path id="path13619" d="M9.912,0V5.909H0V8.544H12.3V0Z" fill="#574977"/>
    </g>
    <g id="g13621" transform="translate(60.368 2.672) rotate(90)">
      <path id="path13623" d="M2.228,5.105A2.493,2.493,0,0,0,4.893,7.612,2.578,2.578,0,0,0,7.559,5.071,2.51,2.51,0,0,0,4.893,2.565,2.578,2.578,0,0,0,2.228,5.105m7.559,0a4.912,4.912,0,0,1-4.893,5.071A4.95,4.95,0,0,1,0,5.071,4.912,4.912,0,0,1,4.893,0,4.95,4.95,0,0,1,9.787,5.105" transform="translate(0 0)" fill="#574977"/>
    </g>
    <g id="g13625" transform="translate(40.352 2.672) rotate(90)">
      <path id="path13627" d="M2.228,5.106A2.493,2.493,0,0,0,4.893,7.612,2.578,2.578,0,0,0,7.559,5.071,2.51,2.51,0,0,0,4.893,2.565,2.578,2.578,0,0,0,2.228,5.106m7.559,0a4.912,4.912,0,0,1-4.893,5.071A4.95,4.95,0,0,1,0,5.071,4.912,4.912,0,0,1,4.893,0,4.95,4.95,0,0,1,9.787,5.106" transform="translate(0 0)" fill="#574977"/>
    </g>
  </g>
</svg>
