<svg id="layer1" xmlns="http://www.w3.org/2000/svg" width="63.217" height="16.746" viewBox="0 0 63.217 16.746">
  <g id="g3019" transform="translate(0 0)">
    <path id="Subtraction_151" data-name="Subtraction 151" d="M15.408,16.746H1.23A1.218,1.218,0,0,1,0,15.544V1.2A1.217,1.217,0,0,1,1.23,0H15.408a1.216,1.216,0,0,1,1.229,1.2V15.544A1.217,1.217,0,0,1,15.408,16.746ZM10.32,8.262c1.05,0,1.271.93,1.271,1.71v4.046h2.515V9.683a3.677,3.677,0,0,0-.827-2.575,2.714,2.714,0,0,0-2.066-.832A2.493,2.493,0,0,0,8.949,7.522V6.455H6.436c.028.7,0,7.511,0,7.562H8.949V9.794a1.783,1.783,0,0,1,.081-.611A1.408,1.408,0,0,1,10.32,8.262ZM2.53,6.454h0v7.562H5.043V6.455H2.53ZM3.8,2.812a1.31,1.31,0,1,0-.03,2.613h.015A1.31,1.31,0,1,0,3.8,2.812Z" transform="translate(46.58)" fill="#574977"/>
    <path id="path16" d="M31.738-77.428h6.944v-2.28H34.251v-8.7H31.738Z" transform="translate(-31.738 91.453)" fill="#574977" fill-rule="evenodd"/>
    <path id="path18" d="M69.908-78.24V-85.8H67.4v7.561Zm-1.257-8.594a1.311,1.311,0,0,0,1.422-1.307,1.306,1.306,0,0,0-1.405-1.306,1.311,1.311,0,0,0-1.422,1.306,1.3,1.3,0,0,0,1.389,1.307h.016Z" transform="translate(-59.448 92.265)" fill="#574977" fill-rule="evenodd"/>
    <path id="path20" d="M84.68-65.918h2.513v-4.223a1.72,1.72,0,0,1,.083-.613,1.376,1.376,0,0,1,1.289-.919c.91,0,1.273.694,1.273,1.709v4.046h2.513v-4.336c0-2.323-1.24-3.4-2.894-3.4a2.5,2.5,0,0,0-2.282,1.274h.017v-1.1H84.681c.033.71,0,7.561,0,7.561Z" transform="translate(-73.054 79.944)" fill="#574977" fill-rule="evenodd"/>
    <path id="path22" d="M126.827-88.406h-2.513v10.978h2.513v-2.451l.628-.791,1.968,3.242h3.092l-3.307-4.694,2.893-3.193h-3.026s-2.067,2.857-2.249,3.2Z" transform="translate(-103.983 91.453)" fill="#574977" fill-rule="evenodd"/>
    <path id="path24" d="M165.233-70.287a6.149,6.149,0,0,0,.083-.988c0-1.955-.992-3.939-3.6-3.939A4,4,0,0,0,157.627-71c0,2.479,1.571,4.028,4.315,4.028a7.814,7.814,0,0,0,2.927-.5l-.331-1.66a6.837,6.837,0,0,1-2.232.337c-1.174,0-2.2-.482-2.282-1.509l5.208.016Zm-5.225-1.7a1.64,1.64,0,0,1,1.571-1.6,1.439,1.439,0,0,1,1.405,1.6Z" transform="translate(-129.98 81.159)" fill="#574977" fill-rule="evenodd"/>
    <path id="path26" d="M200.319-88.406v3.8h-.033a2.512,2.512,0,0,0-2.133-.887c-1.935,0-3.638,1.548-3.621,4.193,0,2.452,1.538,4.049,3.456,4.049a2.842,2.842,0,0,0,2.53-1.323h.05l.1,1.145H202.9c-.033-.532-.066-1.452-.066-2.355v-8.623h-2.513Zm0,7.478a2.812,2.812,0,0,1-.05.548A1.48,1.48,0,0,1,198.8-79.2c-1.042,0-1.72-.839-1.72-2.161,0-1.242.579-2.242,1.736-2.242a1.486,1.486,0,0,1,1.472,1.193,2.085,2.085,0,0,1,.033.452Z" transform="translate(-158.78 91.453)" fill="#574977" fill-rule="evenodd"/>
  </g>
</svg>
