<svg id="Microsoft_logo__2012_1_" data-name="Microsoft_logo_(2012) (1)" xmlns="http://www.w3.org/2000/svg" width="67.727" height="14.445" viewBox="0 0 67.727 14.445">
  <path id="Path_54904" data-name="Path 54904" d="M103.069,11.842v8.667h-1.5v-6.8h-.02l-2.688,6.8h-1l-2.748-6.8h-.02v6.8H93.7V11.842h2.167l2.488,6.42h.04l2.628-6.42h2.046Zm1.244.662a.763.763,0,0,1,.261-.6.9.9,0,0,1,.622-.241.878.878,0,0,1,.642.241.834.834,0,0,1,.261.6.763.763,0,0,1-.261.6.911.911,0,0,1-.642.241.831.831,0,0,1-.622-.241A.909.909,0,0,1,104.312,12.5Zm1.625,1.786v6.219h-1.464V14.29Zm4.434,5.156a1.69,1.69,0,0,0,.722-.16,3.169,3.169,0,0,0,.722-.4v1.364a2.559,2.559,0,0,1-.8.3,4.937,4.937,0,0,1-.983.1,2.947,2.947,0,0,1-2.227-.863,2.994,2.994,0,0,1-.863-2.207,3.54,3.54,0,0,1,.883-2.468,3.176,3.176,0,0,1,2.488-.963,3.692,3.692,0,0,1,.823.1,2.733,2.733,0,0,1,.662.241v1.4a2.914,2.914,0,0,0-.682-.381,2.305,2.305,0,0,0-.722-.14,1.83,1.83,0,0,0-1.4.562,2.1,2.1,0,0,0-.522,1.525,2.007,2.007,0,0,0,.522,1.465A1.876,1.876,0,0,0,110.371,19.445Zm5.6-5.256a1.621,1.621,0,0,1,.321.02,2.081,2.081,0,0,1,.241.06v1.485a.9.9,0,0,0-.341-.16,2.058,2.058,0,0,0-.542-.08,1.122,1.122,0,0,0-.9.461,2.216,2.216,0,0,0-.381,1.4v3.13H112.9V14.29h1.464v.983h.02a1.89,1.89,0,0,1,.6-.8A1.768,1.768,0,0,1,115.968,14.189Zm.642,3.31a3.466,3.466,0,0,1,.863-2.448,3.192,3.192,0,0,1,2.407-.9,2.949,2.949,0,0,1,2.267.863,3.313,3.313,0,0,1,.823,2.347,3.4,3.4,0,0,1-.863,2.407,3.129,3.129,0,0,1-2.367.9,3.09,3.09,0,0,1-2.287-.843A3.219,3.219,0,0,1,116.61,17.5Zm1.525-.06a2.188,2.188,0,0,0,.441,1.485,1.6,1.6,0,0,0,1.264.522,1.46,1.46,0,0,0,1.224-.522,2.343,2.343,0,0,0,.421-1.525,2.42,2.42,0,0,0-.421-1.525,1.674,1.674,0,0,0-2.447.02A2.2,2.2,0,0,0,118.135,17.439Zm7.021-1.5a.637.637,0,0,0,.2.5,3.431,3.431,0,0,0,.883.441,3.059,3.059,0,0,1,1.224.782,1.625,1.625,0,0,1,.361,1.063,1.684,1.684,0,0,1-.682,1.4,2.824,2.824,0,0,1-1.826.522,4.753,4.753,0,0,1-.863-.1,3.472,3.472,0,0,1-.8-.241V18.864a3.506,3.506,0,0,0,.863.441,2.7,2.7,0,0,0,.843.16,1.348,1.348,0,0,0,.722-.14.492.492,0,0,0,.241-.461.706.706,0,0,0-.241-.522,3.7,3.7,0,0,0-.923-.481,2.759,2.759,0,0,1-1.144-.762,1.823,1.823,0,0,1,.321-2.468,2.65,2.65,0,0,1,1.725-.542,3.181,3.181,0,0,1,.722.08c.261.06.5.12.682.181v1.424a4.322,4.322,0,0,0-.682-.341,2.123,2.123,0,0,0-.762-.14,1.119,1.119,0,0,0-.642.16A.641.641,0,0,0,125.156,15.935Zm3.29,1.565a3.466,3.466,0,0,1,.863-2.448,3.192,3.192,0,0,1,2.407-.9,2.949,2.949,0,0,1,2.267.863,3.313,3.313,0,0,1,.823,2.347,3.4,3.4,0,0,1-.863,2.407,3.129,3.129,0,0,1-2.367.9,3.09,3.09,0,0,1-2.287-.843A3.307,3.307,0,0,1,128.446,17.5Zm1.525-.06a2.188,2.188,0,0,0,.441,1.485,1.6,1.6,0,0,0,1.264.522,1.46,1.46,0,0,0,1.224-.522,2.343,2.343,0,0,0,.421-1.525,2.42,2.42,0,0,0-.421-1.525,1.674,1.674,0,0,0-2.447.02A2.3,2.3,0,0,0,129.971,17.439Zm9.71-1.946h-2.187v5.015h-1.485V15.493h-1.043v-1.2h1.043v-.863a2.164,2.164,0,0,1,2.267-2.227c.181,0,.341.02.481.02a.958.958,0,0,1,.361.08v1.264a2.459,2.459,0,0,0-.261-.1,1.333,1.333,0,0,0-.421-.06.905.905,0,0,0-.7.281,1.279,1.279,0,0,0-.241.843v.742h2.187v-1.4l1.464-.441v1.846h1.485v1.2h-1.485v2.909a1.335,1.335,0,0,0,.2.8.835.835,0,0,0,.662.241.99.99,0,0,0,.3-.06,1.048,1.048,0,0,0,.3-.14v1.2a1.4,1.4,0,0,1-.461.14,3.476,3.476,0,0,1-.642.06,1.812,1.812,0,0,1-1.384-.481,2.121,2.121,0,0,1-.461-1.485l.02-3.17Z" transform="translate(-74.902 -8.953)" fill="#574977"/>
  <rect id="Rectangle_12401" data-name="Rectangle 12401" width="6.861" height="6.861" fill="#574977"/>
  <rect id="Rectangle_12402" data-name="Rectangle 12402" width="6.861" height="6.861" transform="translate(7.583)" fill="#574977"/>
  <rect id="Rectangle_12403" data-name="Rectangle 12403" width="6.861" height="6.861" transform="translate(0 7.583)" fill="#574977"/>
  <rect id="Rectangle_12404" data-name="Rectangle 12404" width="6.861" height="6.861" transform="translate(7.583 7.583)" fill="#574977"/>
</svg>
