<svg id="PricewaterhouseCoopers_Logo" xmlns="http://www.w3.org/2000/svg" width="43.17" height="32.767" viewBox="0 0 43.17 32.767">
  <path id="path4061" d="M651.967,236.822h-15.7V232.8h15.7Z" transform="translate(-608.797 -222.753)" fill="#574977" opacity="0.3"/>
  <path id="path4103" d="M649.928,103.1H636.265V93.051h13.663Z" transform="translate(-608.797 -89.034)" fill="#574977" opacity="0.3"/>
  <path id="path4089" d="M644.283,14.07h-8.018V0h8.018Z" transform="translate(-608.797 0)" fill="#574977" opacity="0.3"/>
  <path id="path4075" d="M645.86,48.866h-9.6v-12.5h9.6Z" transform="translate(-608.797 -34.796)" fill="#574977" opacity="0.3"/>
  <path id="path4688" d="M636.213,36.421v12.5h8.019v-12.5Z" transform="translate(-608.748 -34.848)" fill="#574977" opacity="0.3"/>
  <path id="path4119" d="M450.016,325.9h8.04v2.01h-8.04Z" transform="translate(-430.589 -311.833)" fill="#574977"/>
  <path id="path4698" d="M636.213,93v10.053h9.6V93Z" transform="translate(-608.748 -88.985)" fill="#574977" opacity="0.3"/>
  <path id="path4693" d="M636.213,93v10.053h8.019V93Z" transform="translate(-608.748 -88.985)" fill="#574977" opacity="0.3"/>
  <path id="path4117" d="M641.279,192.175h-5.014v-6.034h5.014Z" transform="translate(-608.797 -178.105)" fill="#574977" opacity="0.3"/>
  <path id="path4713" d="M636.213,232.87v4.015h13.67V232.87Z" transform="translate(-608.748 -222.816)" fill="#574977" opacity="0.3"/>
  <path id="path4708" d="M636.213,232.87v4.015h9.6V232.87Z" transform="translate(-608.748 -222.816)" fill="#574977" opacity="0.3"/>
  <path id="path4703" d="M636.213,232.87v4.015h8.019V232.87Z" transform="translate(-608.748 -222.816)" fill="#574977" opacity="0.3"/>
  <path id="path4625" d="M636.213,232.87v4.015h5.021V232.87Z" transform="translate(-608.748 -222.816)" fill="#574977" opacity="0.3"/>
  <g id="g2925" transform="translate(0 20.728)">
    <path id="path2850" d="M692.057,157.242c-1.368.243-2.1,1.277-2.1,3.071,0,1.824.973,3.04,2.4,3.04a5.781,5.781,0,0,0,2.584-.882v1.49a7.672,7.672,0,0,1-3.679.912,3.889,3.889,0,0,1-3.1-1.155,4.152,4.152,0,0,1-1.216-3.01c0-2.584,1.946-4.378,4.773-4.378,1.854,0,3.162.882,3.162,2.128a1.383,1.383,0,0,1-1.49,1.4,2.741,2.741,0,0,1-1.338-.426" transform="translate(-662.841 -156.33)" fill="#574977"/>
    <path id="path2852" d="M377.279,160.708c1.246-1.551,1.7-2.189,1.7-2.949a1.434,1.434,0,0,0-1.459-1.429,1.65,1.65,0,0,0-1.155.517v3.192l-2.037,2.736v-6.2h-1.946l-3.223,5.32v-5.32h-1.094l-2.949.669V158l1.611.152v6.6h2.037l3.1-5.108v5.108h2.28" transform="translate(-354.904 -156.33)" fill="#574977"/>
    <path id="path2862" d="M132.542,165.065H133c1.642,0,2.554-1,2.554-3.01,0-1.672-.73-2.584-2.1-2.584a4.936,4.936,0,0,0-.912.122Zm0,3.587,1.338.3v.76h-5.259v-.76l1.216-.3v-9.182H128.5v-.76l3.192-.973h.851v1.094c1.49-.912,2.007-1.064,2.8-1.064,1.763,0,3.1,1.642,3.1,3.922a4.23,4.23,0,0,1-4.53,4.408c-.3,0-.821-.03-1.368-.061" transform="translate(-128.499 -157.677)" fill="#574977"/>
  </g>
</svg>
