<svg id="アートボード1" xmlns="http://www.w3.org/2000/svg" width="62.928" height="15.229" viewBox="0 0 62.928 15.229">
  <rect id="Rectangle_12400" data-name="Rectangle 12400" width="62.928" height="15.229" transform="translate(0 0)" fill="none"/>
  <g id="Group_26577" data-name="Group 26577" transform="translate(0.409 0.415)">
    <path id="Path_54903" data-name="Path 54903" d="M51.53,32.631v4.976a1.58,1.58,0,0,1-3.153,0V32.631H45.635v5.515c0,1.863,1.931,3.373,4.308,3.373s4.308-1.51,4.308-3.373V32.631Zm8.918-5.915V41.2h2.757V26.717ZM55.766,41.2h2.757V26.717H55.766ZM42.261,33.665a3.67,3.67,0,0,0,1.217-2.686,3.609,3.609,0,0,0-1-2.482,4.475,4.475,0,0,0-3.4-1.129H34.369V41.2h6.093a4.135,4.135,0,0,0,4.217-3.961A3.56,3.56,0,0,0,42.261,33.665Zm-2.31,5.124H37.312V29.753h1.838A1.538,1.538,0,0,1,40.617,31.3a1.463,1.463,0,0,1-1.466,1.463h-.957v2.485h1.757a1.774,1.774,0,1,1,0,3.549Zm-29.9-7.326a4.121,4.121,0,0,0-4.159-4.08H.846V41.2H3.78V29.753H5.3a1.844,1.844,0,0,1,1.907,1.812A1.89,1.89,0,0,1,5.261,33.37H4.579v3.307L7.5,41.2h3.439l-4.055-5.77A4.1,4.1,0,0,0,10.052,31.463Zm5.132.811a4.625,4.625,0,1,0,4.2,7.006L17.14,38.243a1.881,1.881,0,0,1-1.729,1.048,1.8,1.8,0,0,1-1.879-1.732v-.095h6.079a5.028,5.028,0,0,0,.025-.554A4.24,4.24,0,0,0,15.184,32.274Zm-1.661,3.617a1.687,1.687,0,1,1,3.371,0ZM30.6,41.2V26.717H27.842v6.854a3.937,3.937,0,0,0-2.774-1.164,4.541,4.541,0,0,0,0,9.045,3.925,3.925,0,0,0,2.787-1.2v.973ZM25.85,39.082a2.231,2.231,0,1,1,2.027-2.225A2.128,2.128,0,0,1,25.85,39.082Z" transform="translate(-0.846 -26.717)" fill="#574977"/>
  </g>
</svg>
