<svg xmlns="http://www.w3.org/2000/svg" width="148" height="64.535" viewBox="0 0 148 64.535">
  <g id="Group_57854" data-name="Group 57854" transform="translate(-3179 -1314)">
    <path id="Path_57566" data-name="Path 57566" d="M5.163,0H142.837A5.163,5.163,0,0,1,148,5.163V59.372a5.163,5.163,0,0,1-5.163,5.163H5.163A5.163,5.163,0,0,1,0,59.372V5.163A5.163,5.163,0,0,1,5.163,0Z" transform="translate(3179 1314)" fill="#ff492c"/>
    <path id="Union_22" data-name="Union 22" d="M14.446,62.814H4.3a4.3,4.3,0,0,1-4.3-4.3V4.3A4.3,4.3,0,0,1,4.3,0H83.9L97.981,31.3,83.9,62.59v.223Z" transform="translate(3179.861 1314.86)" fill="#fff"/>
    <path id="Path_57563" data-name="Path 57563" d="M763.748,151.777h-6.535v-.3a5.141,5.141,0,0,1,.671-2.751,5.58,5.58,0,0,1,2.326-1.932l.5-.253c.9-.455,1.133-.849,1.133-1.316,0-.555-.485-.962-1.264-.962a2.275,2.275,0,0,0-2.115,1.467l-1.254-1.254a3.4,3.4,0,0,1,1.3-1.426,3.647,3.647,0,0,1,1.972-.555,3.725,3.725,0,0,1,2.316.718,2.357,2.357,0,0,1,.982,1.992c0,1.343-.759,2.165-2.182,2.893l-.8.4c-.849.425-1.264.809-1.386,1.487h4.32Zm-.577,2.064H756.02l-3.571,6.191H759.6l3.581,6.191,3.571-6.191Zm-10.1,10.328a8.253,8.253,0,0,1,0-16.507l2.833-5.917a14.453,14.453,0,1,0,5.674,25.852l-3.135-5.422a8.216,8.216,0,0,1-5.37,1.992" transform="translate(2549.24 1190.165)" fill="#fff"/>
    <g id="Group_57850" data-name="Group 57850" transform="translate(3192.768 1325.616)">
      <g id="Group_57849" data-name="Group 57849" transform="translate(51.042)">
        <g id="star" transform="translate(-2 -3)" fill="#ff492c" stroke-linecap="round" stroke-linejoin="round">
          <path d="M 4.510590553283691 14.47606372833252 L 3.769240379333496 13.9306640625 L 4.086798667907715 13.67978000640869 L 4.343426704406738 13.86817836761475 L 4.510590553283691 14.47606372833252 Z M 10.76923561096191 13.01319313049316 L 8.147049903869629 11.45305347442627 L 7.891390323638916 11.30094337463379 L 7.635730266571045 11.45305347442627 L 5.014162063598633 13.01282787322998 L 5.708400249481201 10.08028411865234 L 5.778830528259277 9.782803535461426 L 5.546140193939209 9.58453369140625 L 3.233972549438477 7.614298820495605 L 6.277750492095947 7.349623680114746 L 6.575590133666992 7.323723793029785 L 6.693740367889404 7.049093723297119 L 7.890514373779297 4.267250537872314 L 9.088769912719727 7.063183784484863 L 9.207180023193359 7.339483737945557 L 9.506740570068359 7.364493846893311 L 12.54437637329102 7.618074893951416 L 10.23663997650146 9.58453369140625 L 10.00391006469727 9.782843589782715 L 10.07439994812012 10.08037376403809 L 10.76923561096191 13.01319313049316 Z" stroke="none"/>
          <path d="M 10.01062297821045 11.98003482818604 L 9.587870597839355 10.19564342498779 C 9.501330375671387 9.830373764038086 9.626640319824219 9.447423934936523 9.912350654602051 9.203964233398438 L 11.30598449707031 8.016426086425781 L 9.465149879455566 7.862753868103027 C 9.096480369567871 7.831984043121338 8.774930000305176 7.600183963775635 8.629190444946289 7.260143756866455 L 7.889635562896729 5.534514427185059 L 7.153040409088135 7.24669361114502 C 7.007520198822021 7.584933757781982 6.687900543212891 7.815844058990479 6.321070194244385 7.847743988037109 L 4.467945575714111 8.008884429931641 L 5.870430469512939 9.203964233398438 C 6.156100273132324 9.447383880615234 6.281410217285156 9.830253601074219 6.194950103759766 10.19547367095947 L 5.772533416748047 11.979811668396 L 7.380070209503174 11.02336406707764 C 7.695170879364014 10.83588314056396 8.087610244750977 10.83588314056396 8.4027099609375 11.02336406707764 L 10.01062297821045 11.98003482818604 M 11.52785015106201 14.04636383056641 L 7.891390323638916 11.88275337219238 L 4.255791664123535 14.0458517074585 L 5.221850395202637 9.965104103088379 L 2.000000238418579 7.219713687896729 L 6.234440326690674 6.851503849029541 L 7.891390323638916 3.000003814697266 L 9.548340797424316 6.866223812103271 L 13.78278064727783 7.219713687896729 L 10.5609302520752 9.965104103088379 L 11.52785015106201 14.04636383056641 Z M 4.255670547485352 14.04636383056641 L 4.25493049621582 14.04636383056641 L 4.255791664123535 14.0458517074585 L 4.255670547485352 14.04636383056641 Z" stroke="none" fill="#ff492c"/>
        </g>
        <path id="star-2" data-name="star" d="M15.694,3,17.35,6.866l4.234.353L18.363,9.965l.967,4.081-3.636-2.164V3Z" transform="translate(-9.802 -3)" fill="#fff"/>
        <path id="star_-_Outline" data-name="star - Outline" d="M16.293,5.923v5.618l2.126,1.265-.64-2.7a.6.6,0,0,1,.195-.6L20.1,7.7l-2.8-.234a.6.6,0,0,1-.5-.362l-.505-1.179M15.693,3,17.35,6.866l4.234.353L18.363,9.965l.967,4.081-3.636-2.164Z" transform="translate(-9.802 -3)" fill="#ff492c"/>
      </g>
      <path id="star-3" data-name="star" d="M4.256,14.046l.966-4.081L2,7.22l4.234-.368L7.891,3,9.548,6.866l4.234.353L10.561,9.965l.967,4.081L7.891,11.883,4.255,14.046Z" transform="translate(36.281 -3)" fill="#ff492c"/>
      <path id="star-4" data-name="star" d="M4.256,14.046l.966-4.081L2,7.22l4.234-.368L7.891,3,9.548,6.866l4.234.353L10.561,9.965l.967,4.081L7.891,11.883,4.255,14.046Z" transform="translate(23.521 -3)" fill="#ff492c"/>
      <path id="star-5" data-name="star" d="M4.256,14.046l.966-4.081L2,7.22l4.234-.368L7.891,3,9.548,6.866l4.234.353L10.561,9.965l.967,4.081L7.891,11.883,4.255,14.046Z" transform="translate(10.76 -3)" fill="#ff492c"/>
      <path id="star-6" data-name="star" d="M4.256,14.046l.966-4.081L2,7.22l4.234-.368L7.891,3,9.548,6.866l4.234.353L10.561,9.965l.967,4.081L7.891,11.883,4.255,14.046Z" transform="translate(-2 -3)" fill="#ff492c"/>
    </g>
    <path id="Path_57564" data-name="Path 57564" d="M-65.875-12.763l-1.867-3.18A2.74,2.74,0,0,0-66.116-18.4a2.7,2.7,0,0,0-.819-1.976,2.709,2.709,0,0,0-1.988-.819H-72.3v8.433h1.662V-15.69h1.265l1.7,2.927Zm-3.048-6.879A1.2,1.2,0,0,1-67.779-18.4a1.209,1.209,0,0,1-1.144,1.253h-1.711v-2.494Zm7.987,1.566a2.359,2.359,0,0,0-1.964-.879,2.748,2.748,0,0,0-2.072.928,3.2,3.2,0,0,0-.855,2.253,3.23,3.23,0,0,0,.855,2.265,2.736,2.736,0,0,0,2.072.916,2.359,2.359,0,0,0,1.964-.879v.711h1.554v-6.023h-1.554Zm-2.867,3.53a1.7,1.7,0,0,1-.47-1.229,1.653,1.653,0,0,1,.47-1.217,1.58,1.58,0,0,1,1.193-.482,1.58,1.58,0,0,1,1.193.482,1.615,1.615,0,0,1,.482,1.217,1.661,1.661,0,0,1-.482,1.229,1.616,1.616,0,0,1-1.193.47A1.616,1.616,0,0,1-63.8-14.546Zm9.035-4.24H-56.13v-1.687l-1.554.47v1.217h-1.048v1.494h1.048v2.506c0,1.65.783,2.265,2.915,2.024v-1.409c-.891.048-1.361.036-1.361-.614v-2.506h1.361Zm6.529,3.65a4.068,4.068,0,0,0,.06-.638,3.167,3.167,0,0,0-.867-2.265,2.839,2.839,0,0,0-2.18-.916,3.04,3.04,0,0,0-2.289.916,3.116,3.116,0,0,0-.891,2.265,3.087,3.087,0,0,0,.9,2.277,3.234,3.234,0,0,0,2.4.9,2.992,2.992,0,0,0,2.626-1.289l-1.253-.723a1.6,1.6,0,0,1-1.349.6,1.535,1.535,0,0,1-1.7-1.132Zm-4.566-1.2a1.5,1.5,0,0,1,1.578-1.217,1.456,1.456,0,0,1,1.494,1.217Zm9.987-1.735a2.32,2.32,0,0,0-1.952-.879,2.773,2.773,0,0,0-2.084.928,3.2,3.2,0,0,0-.855,2.253,3.23,3.23,0,0,0,.855,2.265,2.761,2.761,0,0,0,2.084.916,2.32,2.32,0,0,0,1.952-.879v.711h1.554V-21.2h-1.554Zm-2.867,3.53a1.7,1.7,0,0,1-.47-1.229,1.653,1.653,0,0,1,.47-1.217,1.625,1.625,0,0,1,1.2-.482,1.58,1.58,0,0,1,1.193.482,1.653,1.653,0,0,1,.47,1.217,1.7,1.7,0,0,1-.47,1.229,1.616,1.616,0,0,1-1.193.47A1.663,1.663,0,0,1-45.685-14.546Zm13.576-1.193v-2h-1.674v2h-2.192l2.795-5.457h-1.783l-2.807,5.457V-14.2h3.987v1.434h1.674V-14.2h.9v-1.542Zm3.168,2.831a1.025,1.025,0,0,0,0-1.446,1.025,1.025,0,0,0-1.446,0,1.025,1.025,0,0,0,0,1.446A1.025,1.025,0,0,0-28.941-12.907Zm6.481-6.915V-21.2h-5.3v1.554h3.3l-1.662,2.168.638.964h.361c.855,0,1.349.458,1.349,1.144,0,.711-.494,1.144-1.349,1.144a1.371,1.371,0,0,1-1.47-.976l-1.421.819a2.944,2.944,0,0,0,2.891,1.783,3.165,3.165,0,0,0,2.132-.735,2.5,2.5,0,0,0,.879-2.036,2.49,2.49,0,0,0-1.927-2.409Zm6.4-2.578h-.687l-4.819,10.842h.687Zm2.662,4.277.108-1.518h3.241V-21.2h-4.782l-.337,4.686h2.554a1.148,1.148,0,0,1,1.3,1.144c0,.711-.494,1.144-1.349,1.144a1.4,1.4,0,0,1-1.518-1.012l-1.421.831a2.952,2.952,0,0,0,2.939,1.807,3.165,3.165,0,0,0,2.132-.735,2.5,2.5,0,0,0,.879-2.036,2.539,2.539,0,0,0-.831-2.024,2.969,2.969,0,0,0-2.048-.735ZM-58.979-6.478A2.32,2.32,0,0,0-60.93-5.6v-3.12h-1.554V-.286h1.554V-1a2.32,2.32,0,0,0,1.952.879,2.718,2.718,0,0,0,2.072-.916A3.187,3.187,0,0,0-56.039-3.3a3.158,3.158,0,0,0-.867-2.253A2.729,2.729,0,0,0-58.979-6.478ZM-60.46-2.069A1.7,1.7,0,0,1-60.93-3.3a1.653,1.653,0,0,1,.47-1.217A1.58,1.58,0,0,1-59.268-5a1.58,1.58,0,0,1,1.193.482A1.615,1.615,0,0,1-57.593-3.3a1.661,1.661,0,0,1-.482,1.229,1.616,1.616,0,0,1-1.193.47A1.616,1.616,0,0,1-60.46-2.069Zm7.625-.193L-54.4-6.309h-1.7l2.47,5.831A1.473,1.473,0,0,1-55.208.678V2.123c1.542.084,2.554-.675,3.18-2.409l2.192-6.023H-51.5Zm10.24-.8c0,1-.518,1.494-1.325,1.494A1.116,1.116,0,0,1-45.113-2.8V-6.309h-1.554v3.7A2.546,2.546,0,0,0-46.029-.78a2.179,2.179,0,0,0,1.638.663A1.993,1.993,0,0,0-42.6-.961v.675h1.554V-6.309H-42.6Zm4.12-1.542c0-.3.3-.494.7-.494a1,1,0,0,1,.964.614l1.325-.723a2.561,2.561,0,0,0-2.289-1.277,2.563,2.563,0,0,0-1.638.518,1.677,1.677,0,0,0-.651,1.4c0,1.253,1.12,1.626,2.012,1.855.614.157,1.1.337,1.1.663,0,.349-.277.518-.831.518a1.121,1.121,0,0,1-1.181-.783l-1.349.759a2.533,2.533,0,0,0,2.53,1.434,2.911,2.911,0,0,0,1.723-.494,1.661,1.661,0,0,0,.7-1.434c.012-1.289-1.132-1.711-2.012-1.891C-37.994-4.093-38.475-4.273-38.475-4.6Zm9.637,1.939a4.068,4.068,0,0,0,.06-.638,3.167,3.167,0,0,0-.867-2.265,2.839,2.839,0,0,0-2.18-.916,3.04,3.04,0,0,0-2.289.916A3.116,3.116,0,0,0-35.006-3.3a3.087,3.087,0,0,0,.9,2.277,3.234,3.234,0,0,0,2.4.9,2.992,2.992,0,0,0,2.626-1.289l-1.253-.723a1.6,1.6,0,0,1-1.349.6,1.535,1.535,0,0,1-1.7-1.132Zm-4.566-1.2a1.5,1.5,0,0,1,1.578-1.217,1.456,1.456,0,0,1,1.494,1.217Zm7.023-2.445h-1.554V-.286h1.554V-3.165a1.381,1.381,0,0,1,.554-1.241A1.81,1.81,0,0,1-24.55-4.7V-6.43a1.847,1.847,0,0,0-1.831,1.156ZM-22.646-4.6c0-.3.3-.494.7-.494a1,1,0,0,1,.964.614l1.325-.723a2.561,2.561,0,0,0-2.289-1.277,2.563,2.563,0,0,0-1.638.518,1.677,1.677,0,0,0-.651,1.4c0,1.253,1.12,1.626,2.012,1.855.614.157,1.1.337,1.1.663,0,.349-.277.518-.831.518A1.121,1.121,0,0,1-23.14-2.31l-1.349.759A2.533,2.533,0,0,0-21.96-.117a2.911,2.911,0,0,0,1.723-.494,1.661,1.661,0,0,0,.7-1.434c.012-1.289-1.132-1.711-2.012-1.891C-22.164-4.093-22.646-4.273-22.646-4.6Z" transform="translate(3265.366 1365.16)" fill="#0f082b"/>
  </g>
</svg>
